<svg width="69" height="31" viewBox="0 0 69 31" fill="none" xmlns="http://www.w3.org/2000/svg">
<path d="M67.8662 1.84375C67.9365 1.9375 67.8076 2.41797 67.4795 3.28516C67.1748 4.12891 66.7412 5.21875 66.1787 6.55469C65.6162 7.89063 64.96 9.40235 64.21 11.0898C63.46 12.7539 62.6865 14.4414 61.8896 16.1523C62.5459 17.8164 63.167 19.4453 63.7529 21.0391C64.3389 22.6094 64.8428 24.0156 65.2646 25.2578C65.71 26.4766 66.0381 27.4609 66.249 28.2109C66.4834 28.9844 66.5537 29.3828 66.46 29.4063C66.2959 29.4297 66.0498 29.3477 65.7217 29.1602C65.417 28.9727 65.0889 28.7383 64.7373 28.457C64.3857 28.1758 64.0576 27.8828 63.7529 27.5781C63.4717 27.2734 63.2607 27.0039 63.1201 26.7695C62.7686 26.043 62.4053 25.3047 62.0303 24.5547C61.6553 23.7813 61.3154 23.0781 61.0107 22.4453C60.6592 21.6953 60.3193 20.9688 59.9912 20.2656C59.3818 21.5078 58.7959 22.6797 58.2334 23.7813C57.6943 24.8828 57.2139 25.8438 56.792 26.6641C56.3701 27.4844 56.0068 28.1289 55.7021 28.5977C55.4209 29.0898 55.2451 29.3359 55.1748 29.3359C54.9639 29.3359 54.7764 29.2188 54.6123 28.9844C54.4717 28.75 54.3428 28.4688 54.2256 28.1406C54.1318 27.8125 54.0732 27.4844 54.0498 27.1563C54.0264 26.8047 54.0381 26.5117 54.085 26.2773C54.5537 25.0117 55.0107 23.7578 55.4561 22.5156C55.9014 21.2734 56.3115 20.1602 56.6865 19.1758C57.1084 18.0273 57.5186 16.9375 57.917 15.9063C57.3779 14.7578 56.8506 13.6328 56.335 12.5313C55.8193 11.4063 55.3506 10.375 54.9287 9.4375C54.5303 8.5 54.2021 7.69141 53.9443 7.01172C53.6631 6.33204 53.4873 5.83985 53.417 5.53516C53.2998 5.04297 53.335 4.57422 53.5225 4.12891C53.71 3.66016 53.9443 3.25 54.2256 2.89844C54.5068 2.54688 54.7998 2.27735 55.1045 2.08985C55.4092 1.90235 55.6318 1.84375 55.7725 1.91407C55.8662 1.98438 56.042 2.26563 56.2998 2.75782C56.5576 3.22657 56.8623 3.85938 57.2139 4.65625C57.5889 5.45313 57.999 6.39063 58.4443 7.46875C58.8896 8.52344 59.3584 9.64844 59.8506 10.8438C60.46 9.29688 61.0107 7.9375 61.5029 6.76563C61.9951 5.57032 62.3818 4.77344 62.6631 4.375C62.9678 3.88282 63.4014 3.46094 63.9639 3.10938C64.5264 2.73438 65.0771 2.44141 65.6162 2.23047C66.1787 1.9961 66.6709 1.85547 67.0928 1.8086C67.5381 1.73829 67.7959 1.75 67.8662 1.84375Z" fill="#3F2062"/>
<path d="M50.994 18.8242C51.0409 18.8945 51.0292 19.1289 50.9589 19.5273C50.912 19.9258 50.83 20.3594 50.7128 20.8281C50.619 21.2969 50.5136 21.7422 50.3964 22.1641C50.3026 22.5625 50.2206 22.7969 50.1503 22.8672H49.7987C49.7284 22.8672 49.6581 22.8555 49.5878 22.832C49.705 23.957 49.7987 24.8594 49.869 25.5391C49.9393 26.2188 49.9745 26.5938 49.9745 26.6641C49.9745 26.8281 49.8925 27.0625 49.7284 27.3672C49.5878 27.6719 49.4237 27.9531 49.2362 28.2109C49.0487 28.4688 48.8495 28.668 48.6386 28.8086C48.4511 28.9727 48.3222 28.9844 48.2518 28.8438C48.1347 28.6328 47.8886 28 47.5136 26.9453C47.1386 25.8906 46.7167 24.4492 46.2479 22.6211C45.7792 22.5742 45.287 22.5273 44.7714 22.4805C44.2792 22.4336 43.7753 22.3867 43.2597 22.3398C42.744 22.293 42.2284 22.2344 41.7128 22.1641C41.2206 22.0703 40.7401 21.9883 40.2714 21.918C40.037 22.9492 39.8026 23.9219 39.5683 24.8359C39.3573 25.75 39.1464 26.5469 38.9354 27.2266C38.7479 27.9062 38.5839 28.4453 38.4433 28.8438C38.3026 29.2422 38.1972 29.4414 38.1268 29.4414C37.9393 29.4414 37.7518 29.3242 37.5643 29.0898C37.3768 28.8555 37.2011 28.5742 37.037 28.2461C36.8964 27.918 36.7792 27.5781 36.6854 27.2266C36.5917 26.875 36.5448 26.582 36.5448 26.3477C36.5917 25.8086 36.6503 25.2461 36.7206 24.6602C36.8143 24.0742 36.8847 23.5352 36.9315 23.043C37.0018 22.457 37.0722 21.8828 37.1425 21.3203H37.0018C36.9081 21.2734 36.7792 21.168 36.6151 21.0039C36.4511 20.8398 36.287 20.6758 36.1229 20.5117C35.9589 20.3242 35.8183 20.1484 35.7011 19.9844C35.5839 19.7969 35.5253 19.6562 35.5253 19.5625C35.5253 19.5156 35.6893 19.4688 36.0175 19.4219C36.369 19.375 36.8261 19.3281 37.3886 19.2812C37.5761 17.875 37.7753 16.4102 37.9862 14.8867C38.1972 13.3633 38.4081 11.9336 38.619 10.5977C38.83 9.26172 39.0292 8.10156 39.2167 7.11719C39.4276 6.10938 39.6034 5.41797 39.744 5.04297C39.9784 4.41016 40.3886 3.84766 40.9745 3.35547C41.5604 2.83984 42.1698 2.41797 42.8026 2.08984C43.4589 1.73828 44.08 1.46875 44.6659 1.28125C45.2518 1.09375 45.6854 1 45.9667 1C46.0839 1 46.2128 1.26953 46.3534 1.80859C46.5175 2.32422 46.6815 3.02734 46.8456 3.91797C47.0331 4.80859 47.2206 5.85156 47.4081 7.04688C47.619 8.21875 47.8183 9.46094 48.0058 10.7734C48.1933 12.0859 48.369 13.4336 48.5331 14.8164C48.7206 16.1758 48.8964 17.4766 49.0604 18.7188C50.2323 18.7188 50.8768 18.7539 50.994 18.8242ZM40.9393 19.0352C41.6893 18.9883 42.4393 18.9531 43.1893 18.9297C43.9393 18.9062 44.6776 18.8711 45.4042 18.8242C45.2167 17.9102 45.0058 16.8906 44.7714 15.7656C44.5839 14.8047 44.3612 13.6797 44.1034 12.3906C43.8456 11.1016 43.5878 9.68359 43.33 8.13672C43.0487 9.51953 42.7675 10.8672 42.4862 12.1797C42.205 13.4688 41.9472 14.6289 41.7128 15.6602C41.455 16.8555 41.1972 17.9805 40.9393 19.0352Z" fill="#3F2062"/>
<path d="M31.239 5.88672C31.3562 6.02735 31.4734 6.42579 31.5906 7.08204C31.7078 7.73829 31.7898 8.45313 31.8367 9.22657C31.907 10 31.9304 10.7266 31.907 11.4063C31.907 12.0859 31.8484 12.5313 31.7312 12.7422C31.6375 12.8828 31.4031 13.1406 31.0281 13.5156C30.6531 13.8672 30.2195 14.2656 29.7273 14.7109C29.2351 15.1563 28.7195 15.6016 28.1804 16.0469C27.6648 16.4688 27.2078 16.832 26.8093 17.1367C26.9968 17.5117 27.2312 18.0039 27.5125 18.6133C27.7937 19.1992 28.0984 19.832 28.4265 20.5117C28.7547 21.168 29.0711 21.8477 29.3757 22.5508C29.7039 23.2539 29.9968 23.8984 30.2547 24.4844C30.5125 25.0469 30.7234 25.5273 30.8875 25.9258C31.0515 26.3008 31.1336 26.5234 31.1336 26.5938C31.1336 26.7109 31.075 26.875 30.9578 27.0859C30.864 27.2969 30.7351 27.4961 30.5711 27.6836C30.407 27.8477 30.2312 27.9883 30.0437 28.1055C29.8562 28.2227 29.6804 28.2461 29.5164 28.1758C29.4226 28.1523 29.2468 27.9648 28.989 27.6133C28.7312 27.2383 28.4148 26.7813 28.0398 26.2422C27.6882 25.6797 27.2898 25.0469 26.8445 24.3438C26.4226 23.6406 25.989 22.9375 25.5437 22.2344C25.0984 21.5078 24.6765 20.8164 24.2781 20.1602C23.8797 19.4805 23.5281 18.8828 23.2234 18.3672C23.1765 20.8047 23.1179 22.6797 23.0476 23.9922C23.0007 25.3047 22.9656 26.2656 22.9422 26.875C22.8953 27.6016 22.8484 28.0117 22.8015 28.1055C22.7312 28.1055 22.5789 28.0117 22.3445 27.8242C22.1101 27.6133 21.864 27.3672 21.6062 27.0859C21.3484 26.8047 21.1023 26.5234 20.8679 26.2422C20.657 25.9609 20.5281 25.75 20.4812 25.6094C20.4343 25.3047 20.364 24.4258 20.2703 22.9727C20.2234 22.3398 20.1765 21.5547 20.1297 20.6172C20.0828 19.6797 20.0242 18.543 19.9539 17.207C19.907 15.8711 19.8367 14.3008 19.7429 12.4961C19.6492 10.6914 19.5554 8.61719 19.4617 6.27344C19.0398 6.25 18.7 6.25 18.4422 6.27344C18.1843 6.27344 17.9851 6.28516 17.8445 6.3086C17.7039 6.33204 17.5984 6.34375 17.5281 6.34375C17.4578 6.32032 17.3992 6.26172 17.3523 6.16797C17.2586 5.98047 17.1882 5.66407 17.1414 5.21875C17.0945 4.75 17.0711 4.30469 17.0711 3.88282C17.0711 3.41407 17.1414 2.94532 17.282 2.47657C17.3992 2.00782 17.5515 1.71485 17.739 1.59766C17.8328 1.52735 18.1609 1.53907 18.7234 1.63282C19.2859 1.70313 19.907 1.79688 20.5867 1.91407C21.2664 2.03125 21.9109 2.16016 22.5203 2.30079C23.1531 2.44141 23.5632 2.53516 23.7507 2.58204C23.9148 2.62891 24.1843 2.71094 24.5593 2.82813C24.9343 2.92188 25.3679 3.0625 25.8601 3.25C26.3523 3.41407 26.8679 3.60157 27.407 3.8125C27.9695 4.02344 28.4968 4.2461 28.989 4.48047C29.4812 4.71485 29.9265 4.94922 30.325 5.1836C30.7234 5.41797 31.0281 5.65235 31.239 5.88672ZM23.3289 15.8008C23.5398 15.6836 23.8211 15.4609 24.1726 15.1328C24.5242 14.7813 24.8992 14.3945 25.2976 13.9727C25.7195 13.5273 26.1414 13.0703 26.5632 12.6016C26.9851 12.1094 27.3601 11.6523 27.6882 11.2305C28.0398 10.8086 28.3211 10.4453 28.532 10.1406C28.7429 9.83594 28.8484 9.63672 28.8484 9.54297C28.8484 9.37891 28.6961 9.19141 28.3914 8.98047C28.1101 8.7461 27.7351 8.51172 27.2664 8.27735C26.7976 8.04297 26.2468 7.82032 25.614 7.60938C24.9812 7.375 24.3367 7.17579 23.6804 7.01172L23.3289 15.8008Z" fill="#3F2062"/>
<path d="M15.8786 2.26562C15.9489 2.38281 15.984 2.65234 15.984 3.07422C16.0075 3.49609 15.9957 3.95312 15.9489 4.44531C15.902 4.9375 15.8317 5.41797 15.7379 5.88672C15.6676 6.33203 15.5856 6.625 15.4918 6.76562C15.4215 6.88281 14.9879 6.92969 14.1911 6.90625C13.4176 6.85938 12.3043 6.74219 10.8512 6.55469C10.8512 7.46875 10.8395 8.64062 10.8161 10.0703C10.7926 11.5 10.7457 13.0352 10.6754 14.6758C10.6286 16.293 10.57 17.9219 10.4996 19.5625C10.4528 21.2031 10.3942 22.6914 10.3239 24.0273C10.2536 25.3633 10.1832 26.4531 10.1129 27.2969C10.0426 28.1406 9.98402 28.5859 9.93715 28.6328C9.8434 28.7031 9.67934 28.668 9.44496 28.5273C9.23402 28.4102 9.01137 28.2344 8.77699 28C8.54262 27.7656 8.31996 27.5312 8.10902 27.2969C7.92152 27.0391 7.79262 26.8164 7.72231 26.6289C7.69887 26.5352 7.65199 26.0781 7.58168 25.2578C7.53481 24.4375 7.47621 23.4062 7.4059 22.1641C7.33559 20.9219 7.25356 19.5391 7.15981 18.0156C7.06606 16.4922 6.97231 14.9805 6.87856 13.4805C6.78481 11.9805 6.67934 10.5742 6.56215 9.26172C6.4684 7.94922 6.38637 6.85938 6.31606 5.99219C4.72231 5.82812 3.57387 5.66406 2.87074 5.5C2.16762 5.33594 1.76918 5.20703 1.67543 5.11328C1.58168 5.01953 1.48793 4.84375 1.39418 4.58594C1.27699 4.30469 1.18324 4.02344 1.11293 3.74219C1.04262 3.46094 1.00746 3.20312 1.00746 2.96875C0.984024 2.71094 1.00746 2.54688 1.07777 2.47656C1.12465 2.42969 1.52309 2.38281 2.27309 2.33594C2.99965 2.28906 3.90199 2.24219 4.98012 2.19531C6.05824 2.14844 7.2184 2.11328 8.46059 2.08984C9.72621 2.06641 10.8981 2.05469 11.9762 2.05469C13.0543 2.05469 13.9567 2.07812 14.6832 2.125C15.4332 2.14844 15.8317 2.19531 15.8786 2.26562Z" fill="#3F2062"/>
<path d="M66.9821 0.815426C67.2154 0.780196 67.4514 0.75588 67.6657 0.765621C67.7794 0.770796 67.9286 0.786758 68.0846 0.83691C68.2157 0.879095 68.4189 0.967291 68.5934 1.15625L68.6666 1.24414L68.7223 1.32617C68.8397 1.51795 68.8681 1.70174 68.8776 1.79004C68.8903 1.90841 68.8842 2.0138 68.8766 2.08789C68.8613 2.23746 68.8254 2.39272 68.7877 2.5332C68.7103 2.82191 68.5823 3.19575 68.4147 3.63867C68.102 4.50335 67.6628 5.60621 67.1002 6.94238C66.5346 8.28574 65.8757 9.80412 65.1237 11.4961L65.1217 11.501C64.427 13.0425 63.7109 14.6033 62.9762 16.1846C63.5769 17.7156 64.1478 19.2172 64.6891 20.6894C65.2743 22.2577 65.7795 23.6666 66.2038 24.915C66.6491 26.134 66.9848 27.1386 67.2057 27.9209C67.3255 28.3161 67.4166 28.6557 67.4625 28.916C67.4837 29.0358 67.5072 29.2036 67.4977 29.374C67.4932 29.4544 67.478 29.6145 67.3991 29.79C67.3114 29.9848 67.1028 30.2758 66.7028 30.376L66.652 30.3887L66.6012 30.3965C66.303 30.439 66.0319 30.3756 65.8366 30.3105C65.6298 30.2416 65.4231 30.1414 65.2252 30.0283L65.2116 30.0205L65.1979 30.0117C64.9376 29.8516 64.6687 29.6658 64.3922 29.4561L64.1129 29.2383C63.7338 28.935 63.3775 28.6171 63.0455 28.2852L63.0319 28.2715L63.0182 28.2568C62.7885 28.008 62.5848 27.7623 62.4176 27.5225L62.2623 27.2842L62.2399 27.2451L62.2204 27.2051C62.0456 26.8438 61.8678 26.4795 61.6872 26.1123L61.1354 25.0019L61.1305 24.9912L60.11 22.8789L60.1051 22.8701C60.0581 22.7698 60.0111 22.6698 59.9645 22.5703C59.6785 23.1419 59.3987 23.6978 59.1237 24.2363C58.5857 25.3354 58.105 26.2973 57.6813 27.1211C57.2537 27.9526 56.874 28.6298 56.5436 29.1387C56.4081 29.374 56.284 29.5777 56.1735 29.7324C56.1172 29.8112 56.0427 29.9091 55.9547 29.9971C55.9114 30.0404 55.8394 30.1065 55.7428 30.168C55.6615 30.2197 55.4584 30.3359 55.1745 30.3359C54.5283 30.3358 54.071 29.9553 53.7926 29.5576L53.7731 29.5293L53.7545 29.499C53.5723 29.1953 53.4175 28.8507 53.2838 28.4766L53.2731 28.4463L53.2643 28.415C53.1803 28.121 53.119 27.8247 53.0817 27.5264L53.0524 27.2275V27.2227C53.0256 26.8206 53.0339 26.4321 53.1041 26.0811L53.1198 26.0039L53.1471 25.9297C53.6146 24.6674 54.0702 23.4165 54.5143 22.1777C54.9613 20.9309 55.3738 19.8111 55.7516 18.8193C56.1196 17.8177 56.48 16.8602 56.8307 15.9463L55.4293 12.9551L55.4254 12.9482L54.0172 9.84765L54.0123 9.83789L54.0084 9.8291C53.6121 8.89664 53.2823 8.08419 53.0202 7.39453C52.7397 6.71675 52.5354 6.15862 52.444 5.76562V5.7666C52.2815 5.08403 52.3266 4.40358 52.5944 3.75781L52.7702 3.35546C52.9584 2.96332 53.1828 2.60117 53.445 2.27343C53.7803 1.85437 54.1565 1.49934 54.5807 1.23828C54.7758 1.11821 55.0021 1.00259 55.2457 0.938473C55.4851 0.875495 55.8501 0.835012 56.2194 1.01953L56.3004 1.05957L56.3727 1.11425C56.5074 1.21533 56.6028 1.33326 56.652 1.39746C56.712 1.47572 56.7695 1.56202 56.8229 1.64746C56.9277 1.81508 57.0451 2.02827 57.1754 2.27636H57.1764C57.4516 2.77669 57.7659 3.43159 58.1188 4.23046C58.5016 5.04391 58.9173 5.99443 59.3659 7.08007C59.5189 7.44255 59.6741 7.81347 59.8327 8.19238C60.0951 7.5455 60.3445 6.9404 60.5807 6.37793C61.0684 5.19412 61.4922 4.29951 61.8463 3.79785C62.2351 3.18865 62.7648 2.68419 63.4088 2.27734L63.8688 1.98632C64.3289 1.71027 64.7896 1.4796 65.2516 1.29882V1.2998C65.8598 1.04787 66.4407 0.874638 66.9821 0.814449V0.815426ZM67.8659 1.84375C67.7954 1.75015 67.5375 1.73832 67.0924 1.80859C66.6706 1.8555 66.1782 1.99615 65.6159 2.23046C65.0769 2.44139 64.5259 2.73444 63.9635 3.10937C63.4011 3.4609 62.9674 3.88288 62.6627 4.375C62.3815 4.77349 61.9947 5.57047 61.5026 6.76562C61.0104 7.93747 60.4596 9.29693 59.8502 10.8437C59.3581 9.64848 58.8893 8.5234 58.444 7.46875C57.9987 6.39067 57.5885 5.45309 57.2135 4.65625C56.862 3.85943 56.5573 3.22653 56.2995 2.75781C56.0417 2.26571 55.8659 1.98436 55.7721 1.91406C55.6315 1.84396 55.4086 1.90246 55.1041 2.08984C54.7995 2.27733 54.5064 2.54697 54.2252 2.89843C53.944 3.24996 53.7096 3.66023 53.5221 4.1289C53.3347 4.57415 53.2995 5.04304 53.4166 5.53515C53.487 5.83982 53.6628 6.33209 53.944 7.01171C54.2018 7.69137 54.5299 8.50005 54.9284 9.4375C55.3502 10.375 55.819 11.4063 56.3346 12.5312C56.8502 13.6328 57.3776 14.7579 57.9166 15.9062C57.5182 16.9375 57.108 18.0274 56.6862 19.1758C56.3112 20.1601 55.901 21.2735 55.4557 22.5156C55.0104 23.7578 54.5533 25.0118 54.0846 26.2773C54.0377 26.5117 54.026 26.8047 54.0495 27.1562C54.0729 27.4843 54.1315 27.8125 54.2252 28.1406C54.3424 28.4687 54.4714 28.75 54.612 28.9844C54.7759 29.2186 54.9637 29.3358 55.1745 29.3359C55.2448 29.3359 55.4206 29.0897 55.7018 28.5977C56.0065 28.1289 56.3698 27.4843 56.7916 26.6641C57.2135 25.8438 57.694 24.8828 58.233 23.7812C58.7955 22.6797 59.3815 21.5078 59.9909 20.2656C60.319 20.9687 60.6589 21.6954 61.0104 22.4453C61.3151 23.0781 61.655 23.7813 62.0299 24.5547C62.4049 25.3046 62.7682 26.043 63.1198 26.7695C63.2604 27.0039 63.4714 27.2735 63.7526 27.5781C64.0572 27.8827 64.3855 28.1758 64.737 28.457C65.0884 28.7382 65.4167 28.9727 65.7213 29.1602C66.0492 29.3475 66.2955 29.4295 66.4596 29.4062C66.5534 29.3828 66.483 28.9844 66.2487 28.2109C66.0377 27.4609 65.7096 26.4765 65.2643 25.2578C64.8424 24.0156 64.3385 22.6093 63.7526 21.0391C63.1667 19.4453 62.5455 17.8164 61.8893 16.1523C62.6862 14.4414 63.4596 12.7539 64.2096 11.0898C64.9596 9.40239 65.6159 7.89059 66.1784 6.55468C66.7408 5.21881 67.1745 4.12889 67.4791 3.28515C67.8073 2.41796 67.9362 1.9375 67.8659 1.84375Z" fill="#1FA1D0"/>
<path d="M35.5446 26.3047L35.5485 26.2607C35.5964 25.71 35.6567 25.1367 35.7282 24.541L35.7301 24.5215L35.733 24.502C35.8241 23.9331 35.8917 23.4155 35.9362 22.9482L35.9371 22.9355L35.9391 22.9238C35.982 22.566 36.0251 22.2125 36.068 21.8633C36.0108 21.8111 35.9567 21.7598 35.9079 21.7109L35.8873 21.6904V21.6895L35.8825 21.6846H35.8815L35.8258 21.6289V21.6279L35.8209 21.623H35.82L35.7643 21.5674V21.5664L35.7594 21.5615H35.7584L35.7028 21.5059V21.5049L35.6979 21.5H35.6969L35.6413 21.4443V21.4434L35.6364 21.4385H35.6354L35.5797 21.3828V21.3818L35.5748 21.377H35.5739L35.5182 21.3213V21.3203L35.5133 21.3154H35.5123L35.4567 21.2598V21.2588L35.4518 21.2539H35.4508L35.3922 21.1953L35.3707 21.1699C35.2804 21.0667 35.1945 20.9649 35.1139 20.8643L34.8873 20.5654L34.8698 20.54L34.8532 20.5146C34.7773 20.3933 34.7035 20.2607 34.6461 20.123C34.5939 19.9977 34.525 19.7984 34.525 19.5625C34.525 19.2446 34.6685 19.0142 34.7799 18.8867C34.8858 18.7657 34.998 18.6947 35.0602 18.6592C35.1851 18.5878 35.3067 18.5494 35.3737 18.5303C35.5229 18.4876 35.7003 18.4567 35.8756 18.4316L35.8854 18.4307C36.068 18.4063 36.2746 18.3821 36.5045 18.3584C36.6609 17.1944 36.8238 15.9915 36.9957 14.75C37.2074 13.2211 37.4194 11.7844 37.6315 10.4414C37.8435 9.09852 38.044 7.92719 38.234 6.92969L38.2379 6.91211C38.448 5.90825 38.6365 5.14677 38.8073 4.69141C39.1073 3.8836 39.6233 3.18905 40.3141 2.60449L40.5563 2.39746C41.1213 1.92757 41.7126 1.52965 42.3307 1.20801L42.8502 0.942383C43.3663 0.691396 43.8702 0.486163 44.361 0.329102C44.9568 0.138429 45.518 4.81577e-05 45.9664 0C46.401 0 46.6795 0.248926 46.7955 0.375977C46.921 0.513345 47.0021 0.663309 47.0534 0.770508C47.1532 0.979326 47.2343 1.23625 47.3063 1.50586C47.487 2.07383 47.658 2.81495 47.8239 3.71191C48.0159 4.62385 48.2068 5.68449 48.3961 6.8916C48.5547 7.77359 48.7061 8.6939 48.8512 9.65234L48.9957 10.6318C49.1836 11.9466 49.3598 13.296 49.5241 14.6797C49.669 15.7303 49.8042 16.7465 49.9352 17.7275C50.1404 17.7321 50.3213 17.7386 50.4772 17.7471C50.65 17.7565 50.8093 17.7685 50.944 17.7871C51.0109 17.7964 51.0885 17.81 51.1657 17.8291C51.2099 17.84 51.2993 17.8628 51.402 17.9102L51.5084 17.9668L51.7018 18.082L51.8258 18.2695L51.8756 18.3506C51.9787 18.5393 52.0026 18.7168 52.0114 18.793C52.0244 18.9062 52.0236 19.0146 52.0192 19.1025C52.0103 19.2805 51.982 19.4857 51.944 19.7012C51.8904 20.1326 51.8034 20.5897 51.6832 21.0703C51.5874 21.5442 51.4804 21.9982 51.36 22.4316C51.3123 22.6311 51.2628 22.814 51.2086 22.9688C51.1799 23.0509 51.1436 23.1417 51.0993 23.2305C51.0613 23.3065 50.986 23.4453 50.8571 23.5742L50.6871 23.7432L50.8639 25.4365C50.8991 25.777 50.926 26.0442 50.944 26.2363C50.9591 26.3977 50.9743 26.5696 50.9743 26.6641C50.9743 27.0711 50.8018 27.471 50.6364 27.7861L50.5055 28.0527C50.3692 28.3149 50.2156 28.5637 50.0446 28.7988C49.8167 29.1121 49.5515 29.3892 49.2418 29.6055C49.0969 29.7244 48.8382 29.905 48.4918 29.9365C48.2584 29.9577 48.0022 29.9087 47.7721 29.7598C47.5747 29.6319 47.4533 29.466 47.3786 29.3281L47.3776 29.3291C47.3709 29.3171 47.3641 29.3044 47.3571 29.291V29.29C47.1879 28.9675 46.918 28.2563 46.5709 27.2803C46.2306 26.3231 45.8617 25.0763 45.4586 23.5498L44.6813 23.4766L44.6764 23.4756L43.1696 23.3359C42.9044 23.3118 42.6388 23.284 42.3737 23.2539L41.5778 23.1553L41.5514 23.1514L41.526 23.1465C41.36 23.1149 41.1949 23.0855 41.0319 23.0566C40.8683 23.7518 40.7056 24.4196 40.5416 25.0596L40.5426 25.0605C40.3278 25.9916 40.1104 26.8141 39.8903 27.5234C39.7035 28.1988 39.5359 28.7531 39.3864 29.1768C39.3112 29.3897 39.2299 29.5942 39.1422 29.7598C39.1008 29.8381 39.0339 29.9547 38.9362 30.0654C38.8779 30.1315 38.6015 30.4414 38.1266 30.4414C37.5708 30.4413 37.1615 30.1374 36.8913 29.8408L36.7838 29.7148C36.6038 29.4898 36.4393 29.2399 36.2887 28.9697L36.1422 28.6934L36.1295 28.667L36.1178 28.6396C35.998 28.3599 35.8928 28.0735 35.8034 27.7803L35.7194 27.4844C35.6141 27.0896 35.5446 26.703 35.5446 26.3477V26.3047ZM43.3297 8.13672C43.5875 9.68358 43.8454 11.1016 44.1032 12.3906C44.361 13.6797 44.5836 14.8047 44.7711 15.7656C45.0055 16.8906 45.2164 17.9102 45.4039 18.8242C44.6775 18.8711 43.939 18.9063 43.1891 18.9297C42.4392 18.9531 41.689 18.9883 40.9391 19.0352C41.1969 17.9805 41.4547 16.8555 41.7125 15.6602C41.9469 14.6289 42.2047 13.4687 42.486 12.1797C42.7672 10.8672 43.0485 9.51952 43.3297 8.13672ZM43.2633 13.2988C43.0576 14.2339 42.8669 15.0951 42.6881 15.8818C42.5329 16.6015 42.3749 17.2958 42.2194 17.9658C42.5322 17.952 42.845 17.9395 43.1579 17.9297C43.5042 17.9189 43.8481 17.9046 44.1891 17.8887L43.7926 15.9697L43.7897 15.957C43.6379 15.1791 43.4615 14.2933 43.2633 13.2988ZM36.5446 26.3477C36.5446 26.582 36.5915 26.875 36.6852 27.2266C36.7789 27.5781 36.8961 27.918 37.0368 28.2461C37.2008 28.5742 37.3766 28.8555 37.5641 29.0898C37.7515 29.3241 37.9392 29.4413 38.1266 29.4414C38.1969 29.4414 38.3024 29.2421 38.443 28.8438C38.5836 28.4453 38.7477 27.9062 38.9352 27.2266C39.1461 26.5469 39.3571 25.75 39.568 24.8359C39.8024 23.9219 40.0368 22.9492 40.2711 21.918C40.7398 21.9883 41.2204 22.0703 41.7125 22.1641C42.2281 22.2344 42.7439 22.293 43.2594 22.3398C43.775 22.3867 44.279 22.4336 44.7711 22.4805C45.2867 22.5273 45.779 22.5742 46.2477 22.6211C46.7164 24.4492 47.1383 25.8906 47.5133 26.9453C47.8883 27.9998 48.1344 28.6327 48.2516 28.8438C48.3219 28.9843 48.4509 28.9725 48.6383 28.8086C48.8492 28.668 49.0485 28.4687 49.236 28.2109C49.4235 27.9532 49.5875 27.6718 49.7282 27.3672C49.8922 27.0625 49.9743 26.8281 49.9743 26.6641C49.9743 26.5938 49.9391 26.2188 49.8688 25.5391C49.7985 24.8594 49.7047 23.957 49.5875 22.832C49.6578 22.8554 49.7282 22.8672 49.7985 22.8672H50.15C50.2203 22.7969 50.3024 22.5625 50.3961 22.1641C50.5133 21.7422 50.6188 21.2969 50.7125 20.8281C50.8297 20.3594 50.9118 19.9258 50.9586 19.5273C51.0289 19.1289 51.0407 18.8945 50.9938 18.8242C50.8761 18.754 50.2315 18.7188 49.0602 18.7188C48.8961 17.4766 48.7204 16.1758 48.5329 14.8164C48.3688 13.4336 48.193 12.0859 48.0055 10.7734C47.818 9.46095 47.6188 8.21874 47.4079 7.04688C47.2204 5.85158 47.0329 4.80858 46.8454 3.91797C46.6813 3.02736 46.5172 2.32421 46.3532 1.80859C46.2125 1.26957 46.0836 1 45.9664 1C45.6852 1.00005 45.2514 1.0938 44.6657 1.28125C44.0798 1.46875 43.4586 1.73832 42.8024 2.08984C42.1696 2.41796 41.5601 2.83989 40.9743 3.35547C40.3884 3.84763 39.9781 4.41021 39.7438 5.04297C39.6032 5.41799 39.4274 6.10944 39.2164 7.11719C39.0289 8.10155 38.8297 9.26174 38.6188 10.5977C38.4079 11.9336 38.1969 13.3633 37.986 14.8867C37.775 16.4101 37.5758 17.875 37.3883 19.2812C36.8259 19.3281 36.3687 19.375 36.0172 19.4219C35.6893 19.4687 35.525 19.5156 35.525 19.5625C35.525 19.6562 35.5837 19.7969 35.7008 19.9844C35.818 20.1484 35.9587 20.3243 36.1227 20.5117L36.6149 21.0039C36.7788 21.1679 36.9079 21.2734 37.0016 21.3203H37.1422C37.0719 21.8828 37.0016 22.457 36.9313 23.043C36.8844 23.5352 36.8141 24.0742 36.7204 24.6602C36.65 25.2461 36.5914 25.8086 36.5446 26.3477Z" fill="#1FA1D0"/>
<path d="M16.0709 3.88282C16.0709 3.31263 16.1566 2.7472 16.3239 2.18946C16.392 1.92651 16.4793 1.67128 16.5973 1.44434C16.7181 1.21214 16.9067 0.938838 17.2086 0.750003C17.416 0.61802 17.622 0.582333 17.7155 0.569339C17.8476 0.550992 17.979 0.550673 18.0914 0.55469C18.3084 0.562463 18.5655 0.594625 18.8473 0.640628C19.1376 0.67692 19.4422 0.718572 19.7604 0.766604L20.7565 0.928714C21.4494 1.04818 22.1094 1.17982 22.736 1.32422L23.9928 1.61231L24.0094 1.61621L24.025 1.62012C24.2001 1.67012 24.476 1.75476 24.8454 1.87012C25.2585 1.97579 25.7172 2.12523 26.2164 2.31543C26.7105 2.48092 27.2242 2.66714 27.7584 2.87598C28.3448 3.09585 28.8984 3.32945 29.4186 3.57715C29.9324 3.82182 30.4043 4.06991 30.8317 4.32129C31.225 4.55265 31.5785 4.80803 31.8639 5.09375L31.9821 5.21778L31.9948 5.23145L32.0075 5.2461L32.0788 5.34082C32.2351 5.56646 32.3218 5.82917 32.3746 6.00879C32.4112 6.13299 32.4458 6.27094 32.4791 6.4209L32.5748 6.90625C32.6983 7.59737 32.7835 8.3411 32.8327 9.13575C32.9062 9.94492 32.9319 10.7138 32.9069 11.4404L32.9059 11.4395C32.905 11.79 32.8901 12.1076 32.8541 12.3809C32.8201 12.6395 32.7567 12.9546 32.6051 13.2275L32.5856 13.2637L32.5631 13.2969C32.4047 13.5345 32.0956 13.862 31.735 14.2227L31.7243 14.2344L31.7116 14.2451C31.3313 14.6016 30.8933 15.0041 30.3981 15.4522C29.8942 15.908 29.367 16.363 28.817 16.8174L28.8141 16.8213C28.5491 17.0381 28.2973 17.2391 28.0612 17.4268C28.1698 17.6556 28.2874 17.907 28.4137 18.1807C28.6929 18.7622 28.9954 19.3901 29.3209 20.0645C29.6576 20.7377 29.982 21.4342 30.2936 22.1533C30.6167 22.8462 30.9061 23.4845 31.1627 24.0674C31.4197 24.628 31.634 25.1151 31.8034 25.5254C31.8885 25.72 31.9594 25.8899 32.0104 26.0283C32.0356 26.0968 32.0605 26.1709 32.0807 26.2432C32.0939 26.2904 32.1334 26.4298 32.1334 26.5938C32.1334 26.964 31.9761 27.303 31.8493 27.5361C31.714 27.8282 31.5378 28.0973 31.3239 28.3418L31.3014 28.3672L31.278 28.3906C31.0631 28.6055 30.8285 28.794 30.5739 28.9531C30.1936 29.1908 29.6888 29.3159 29.1657 29.1094C28.9964 29.048 28.8738 28.9618 28.8141 28.915C28.7255 28.8457 28.648 28.7688 28.5846 28.7012C28.5207 28.633 28.4546 28.5563 28.3873 28.4727L28.1823 28.2051L27.2194 26.8135L27.2047 26.793L27.192 26.7725L25.9996 24.8789L25.9928 24.8682L25.987 24.8584C25.7781 24.5103 25.5669 24.1617 25.3522 23.8135L24.6989 22.7695L24.695 22.7637L24.6911 22.7568C24.5016 22.4477 24.3174 22.1442 24.1364 21.8477C24.1087 22.6986 24.0784 23.4313 24.0455 24.0449C23.999 25.3486 23.9644 26.3049 23.9411 26.9131V26.9268L23.9401 26.9395C23.9163 27.3087 23.8911 27.6116 23.8649 27.8408C23.8519 27.9544 23.8377 28.0637 23.82 28.1592C23.8087 28.22 23.7773 28.39 23.6959 28.5527L23.4196 29.1055H22.8014C22.5878 29.1054 22.4205 29.0414 22.3454 29.0098C22.2539 28.9713 22.173 28.9255 22.11 28.8867C22.0468 28.8478 21.982 28.8034 21.9166 28.7559L21.7194 28.6055L21.6969 28.5869L21.6754 28.5674C21.5442 28.4493 21.4114 28.3229 21.277 28.1885L20.8688 27.7617C20.7347 27.6154 20.6035 27.4689 20.4752 27.3223L20.0993 26.8828L20.068 26.8418C19.8832 26.5954 19.6911 26.3157 19.5768 26.042L19.5329 25.9258L19.5055 25.8447L19.4928 25.7617C19.4375 25.4024 19.3645 24.4689 19.2721 23.0371C19.2247 22.3954 19.1774 21.604 19.1305 20.667L18.9557 17.2598L18.9547 17.251V17.2422C18.9081 15.9134 18.8373 14.3487 18.7438 12.5479C18.6628 10.9885 18.5835 9.22959 18.5026 7.27149L18.4879 7.27344H18.442C18.2029 7.27344 18.0678 7.28503 18.0084 7.29492C17.8569 7.32017 17.6844 7.34375 17.528 7.34375H17.3659L17.2116 7.292C16.8524 7.17214 16.6332 6.92117 16.5065 6.70508L16.4577 6.61524C16.3228 6.34542 16.2432 6.01256 16.1911 5.66895L16.1471 5.32325L16.1461 5.31836C16.0963 4.8203 16.0709 4.34149 16.0709 3.88282ZM23.6803 7.01172C24.3365 7.17578 24.9811 7.37502 25.6139 7.60938C26.2467 7.8203 26.7975 8.04299 27.2663 8.27735C27.735 8.5117 28.11 8.74612 28.3913 8.98047C28.6959 9.19141 28.8483 9.37891 28.8483 9.54297C28.8483 9.63672 28.7428 9.83594 28.5319 10.1406C28.3209 10.4453 28.0397 10.8086 27.6881 11.2305C27.36 11.6523 26.985 12.1094 26.5631 12.6016C26.1413 13.0703 25.7194 13.5274 25.2975 13.9727C24.8991 14.3945 24.524 14.7813 24.1725 15.1328C23.821 15.4609 23.5397 15.6836 23.3288 15.8008L23.6803 7.01172ZM24.4235 13.4395C24.4718 13.3886 24.5218 13.3381 24.5709 13.2861L24.5719 13.2852C24.9878 12.8462 25.4036 12.3952 25.82 11.9326C26.2271 11.4571 26.5865 11.0181 26.8991 10.6162L26.9088 10.6035L26.9196 10.5898C27.2217 10.2273 27.4588 9.91843 27.6403 9.66407C27.5021 9.56055 27.3297 9.44701 27.1159 9.32813L26.819 9.17188C26.4022 8.96347 25.8968 8.7574 25.2975 8.55762L25.2819 8.55274L25.2663 8.54688C25.0548 8.46858 24.8418 8.3952 24.6276 8.3252L24.4235 13.4395ZM17.0709 3.88282C17.0709 4.30469 17.0944 4.75001 17.1413 5.21875C17.1881 5.66403 17.2584 5.98047 17.3522 6.16797C17.399 6.26167 17.4577 6.32029 17.528 6.34375C17.5983 6.34375 17.7038 6.33202 17.8444 6.3086C17.985 6.28516 18.1843 6.27344 18.442 6.27344C18.6998 6.25001 19.0397 6.25001 19.4616 6.27344C19.5553 8.61719 19.6491 10.6914 19.7428 12.4961C19.8366 14.3008 19.9069 15.8711 19.9538 17.207C20.0241 18.543 20.0827 19.6797 20.1295 20.6172C20.1764 21.5547 20.2233 22.3398 20.2702 22.9727C20.3639 24.4258 20.4342 25.3047 20.4811 25.6094C20.528 25.75 20.6569 25.961 20.8678 26.2422C21.1022 26.5234 21.3483 26.8047 21.6061 27.0859C21.8639 27.3672 22.11 27.6133 22.3444 27.8242C22.5786 28.0116 22.731 28.1054 22.8014 28.1055C22.8483 28.0117 22.8952 27.6016 22.942 26.875C22.9655 26.2656 23.0006 25.3047 23.0475 23.9922C23.1178 22.6797 23.1764 20.8047 23.2233 18.3672C23.528 18.8828 23.8795 19.4805 24.278 20.1602C24.6764 20.8164 25.0983 21.5078 25.5436 22.2344C25.9889 22.9375 26.4225 23.6406 26.8444 24.3438C27.2897 25.0469 27.6881 25.6797 28.0397 26.2422C28.4147 26.7812 28.7311 27.2383 28.9889 27.6133C29.2466 27.9647 29.4225 28.1522 29.5163 28.1758C29.6803 28.2461 29.8561 28.2226 30.0436 28.1055C30.2311 27.9883 30.4069 27.8476 30.5709 27.6836C30.735 27.4961 30.8639 27.2969 30.9577 27.0859C31.0748 26.875 31.1334 26.7109 31.1334 26.5938C31.1334 26.5234 31.0514 26.3008 30.8873 25.9258C30.7233 25.5274 30.5123 25.0469 30.2545 24.4844C29.9967 23.8985 29.7037 23.2539 29.3756 22.5508C29.0709 21.8477 28.7545 21.168 28.4264 20.5117C28.0983 19.8321 27.7936 19.1992 27.5123 18.6133C27.2311 18.0039 26.9967 17.5117 26.8092 17.1367C27.2076 16.832 27.6647 16.4687 28.1803 16.0469C28.7194 15.6016 29.235 15.1562 29.7272 14.7109C30.2193 14.2657 30.653 13.8672 31.028 13.5156C31.4029 13.1407 31.6373 12.8828 31.7311 12.7422C31.8483 12.5313 31.9069 12.0859 31.9069 11.4063C31.9303 10.7266 31.9069 10 31.8366 9.22657C31.7897 8.45313 31.7077 7.73828 31.5905 7.08203C31.4733 6.4258 31.3561 6.02735 31.2389 5.88672C31.028 5.65237 30.7232 5.41795 30.3248 5.1836C29.9264 4.94924 29.4811 4.71483 28.9889 4.48047C28.4967 4.24611 27.9693 4.02343 27.4069 3.8125C26.8678 3.60158 26.3522 3.41405 25.86 3.25C25.3679 3.06252 24.9342 2.92187 24.5592 2.82813C24.1843 2.71096 23.9147 2.6289 23.7506 2.58203C23.5631 2.53515 23.1528 2.44138 22.5202 2.30078C21.9108 2.16017 21.2662 2.03125 20.5866 1.91407C19.9069 1.79689 19.2858 1.70312 18.7233 1.63282C18.1609 1.53908 17.8327 1.52735 17.7389 1.59766C17.5514 1.71488 17.399 2.00789 17.2819 2.47657C17.1413 2.9453 17.0709 3.41408 17.0709 3.88282Z" fill="#1FA1D0"/>
<path d="M11.9762 1.05469C13.0503 1.05469 13.9643 1.07773 14.7135 1.125C15.0971 1.13699 15.4195 1.15606 15.6618 1.18457C15.779 1.19837 15.9099 1.21791 16.0319 1.25C16.0917 1.26574 16.1806 1.29228 16.276 1.33789C16.3383 1.36767 16.5049 1.45179 16.65 1.62891L16.7106 1.71094L16.7243 1.73047L16.736 1.75098C16.882 1.99441 16.9276 2.26395 16.9489 2.42676C16.9742 2.62092 16.984 2.84098 16.984 3.07422C17.0066 3.53742 16.9929 4.02661 16.944 4.54004C16.894 5.06507 16.8191 5.57964 16.7184 6.08301C16.6812 6.31205 16.6387 6.52389 16.5866 6.70996C16.5393 6.87866 16.4661 7.08795 16.3473 7.2793L16.3493 7.28027C16.3457 7.28625 16.3402 7.29103 16.3366 7.29688C16.3318 7.30433 16.3288 7.31293 16.3239 7.32031L16.3219 7.31836C16.1062 7.64526 15.7824 7.75776 15.6803 7.79102C15.5233 7.84211 15.3604 7.86777 15.2213 7.88281C15.0789 7.89821 14.9174 7.90675 14.7399 7.91016L14.1618 7.90625L14.1305 7.9043C13.5427 7.86867 12.7791 7.79458 11.8444 7.68457C11.8389 8.38412 11.8308 9.18518 11.8161 10.0869C11.7925 11.5223 11.7447 13.0614 11.6745 14.7041C11.6276 16.3209 11.5689 17.9499 11.4987 19.5898L11.4996 19.5908C11.4526 21.2377 11.3937 22.7346 11.3229 24.0801C11.2523 25.421 11.1805 26.522 11.109 27.3799C11.0735 27.8064 11.0399 28.1479 11.0075 28.3945C10.9916 28.5151 10.9742 28.6322 10.9528 28.7324C10.9424 28.7809 10.926 28.8483 10.902 28.9189C10.8947 28.9408 10.8289 29.1551 10.6442 29.3398L10.5944 29.3906L10.5368 29.4326C10.1724 29.7058 9.773 29.688 9.53383 29.6367C9.29818 29.5861 9.09019 29.4807 8.93031 29.3848V29.3828C8.70434 29.2538 8.48776 29.0931 8.28187 28.9082L8.06996 28.707C7.9469 28.584 7.82696 28.4604 7.70961 28.3369L7.36586 27.9658L7.3307 27.9268L7.30043 27.8848C7.14062 27.665 6.99523 27.4388 6.88441 27.21L6.78578 26.9805L6.76625 26.9268L6.75258 26.8711C6.71916 26.7373 6.69431 26.511 6.67445 26.3174L6.58558 25.3428L6.58363 25.3291V25.3145L6.40785 22.2207L6.16176 18.0771L5.88051 13.543C5.78723 12.0506 5.68235 10.6531 5.56605 9.35059L5.56508 9.3418V9.33301C5.49905 8.40867 5.43671 7.596 5.38246 6.89453C4.37529 6.77924 3.56096 6.66372 2.95277 6.54102L2.6432 6.47363C2.28106 6.38913 1.97487 6.30841 1.73695 6.23145C1.61885 6.19324 1.49892 6.15071 1.39027 6.10156C1.30862 6.06462 1.12627 5.97818 0.968396 5.82031C0.723073 5.57499 0.572827 5.24243 0.471326 4.9707C0.335894 4.64567 0.226228 4.31648 0.143201 3.98438C0.0604151 3.65317 0.0125895 3.32404 0.0094119 3.00195C-0.00202938 2.84828 -0.00678279 2.67879 0.0172244 2.51074C0.0409949 2.34444 0.110426 2.02985 0.37074 1.76953L0.438123 1.70801C0.596153 1.57625 0.753796 1.52472 0.782849 1.51465C0.85608 1.48918 0.925203 1.47301 0.973279 1.46289C1.07229 1.44207 1.18414 1.42608 1.29457 1.41309C1.52101 1.38645 1.82966 1.36165 2.20961 1.33789C2.94543 1.29043 3.85546 1.24332 4.93715 1.19629C6.02444 1.14902 7.19302 1.11341 8.44203 1.08984L10.2789 1.06348C10.8679 1.05759 11.4337 1.05469 11.9762 1.05469ZM11.9762 2.05469C10.8981 2.05469 9.72621 2.06641 8.46058 2.08984C7.2184 2.11328 6.05824 2.14844 4.98011 2.19531C3.90199 2.24219 2.99965 2.28906 2.27308 2.33594C1.52308 2.38281 1.12465 2.42969 1.07777 2.47656C1.00746 2.54688 0.984021 2.71094 1.00746 2.96875C1.00746 3.20312 1.04262 3.46094 1.11293 3.74219C1.18324 4.02344 1.27699 4.30469 1.39418 4.58594C1.48793 4.84375 1.58168 5.01953 1.67543 5.11328C1.76918 5.20703 2.16761 5.33594 2.87074 5.5C3.57386 5.66406 4.7223 5.82812 6.31605 5.99219C6.38636 6.85938 6.4684 7.94922 6.56215 9.26172C6.67933 10.5742 6.7848 11.9805 6.87855 13.4805C6.9723 14.9805 7.06605 16.4922 7.1598 18.0156C7.25355 19.5391 7.33558 20.9219 7.4059 22.1641C7.47621 23.4062 7.5348 24.4375 7.58168 25.2578C7.65199 26.0781 7.69886 26.5352 7.7223 26.6289C7.79261 26.8164 7.92152 27.0391 8.10902 27.2969C8.31996 27.5312 8.54261 27.7656 8.77699 28C9.01136 28.2344 9.23402 28.4102 9.44496 28.5273C9.67933 28.668 9.8434 28.7031 9.93715 28.6328C9.98402 28.5859 10.0426 28.1406 10.1129 27.2969C10.1832 26.4531 10.2536 25.3633 10.3239 24.0273C10.3942 22.6914 10.4528 21.2031 10.4996 19.5625C10.57 17.9219 10.6286 16.293 10.6754 14.6758C10.7457 13.0352 10.7926 11.5 10.8161 10.0703C10.8395 8.64062 10.8512 7.46875 10.8512 6.55469C12.3043 6.74219 13.4176 6.85938 14.1911 6.90625C14.9879 6.92969 15.4215 6.88281 15.4918 6.76562C15.5856 6.625 15.6676 6.33203 15.7379 5.88672C15.8317 5.41797 15.902 4.9375 15.9489 4.44531C15.9957 3.95312 16.0075 3.49609 15.984 3.07422C15.984 2.65234 15.9489 2.38281 15.8786 2.26562C15.8317 2.19531 15.4332 2.14844 14.6832 2.125C13.9567 2.07812 13.0543 2.05469 11.9762 2.05469Z" fill="#1FA1D0"/>
</svg>
